<svg xmlns="http://www.w3.org/2000/svg" version="1.1" xmlns:xlink="http://www.w3.org/1999/xlink" xmlns:svgjs="http://svgjs.dev/svgjs" width="1500" height="1500" viewBox="0 0 1500 1500"><rect width="1500" height="1500" fill="#000000"></rect><g transform="matrix(0.6666666666666666,0,0,0.6666666666666666,249.39393939393938,643.1711767754103)"><svg viewBox="0 0 396 85" data-background-color="#4e2300" preserveAspectRatio="xMidYMid meet" height="321" width="1500" xmlns="http://www.w3.org/2000/svg" xmlns:xlink="http://www.w3.org/1999/xlink"><g id="tight-bounds" transform="matrix(1,0,0,1,0.2400000000000091,-0.06799077527981012)"><svg viewBox="0 0 395.52 85.13598155055962" height="85.13598155055962" width="395.52"><g><svg viewBox="0 0 528.7844236378537 113.82125034146343" height="85.13598155055962" width="395.52"><g transform="matrix(1,0,0,1,0,15.730722731707324)"><svg viewBox="0 0 395.52 82.35980487804878" height="82.35980487804878" width="395.52"><g id="textblocktransform"><svg viewBox="0 0 395.52 82.35980487804878" height="82.35980487804878" width="395.52" id="textblock"><g><svg viewBox="0 0 395.52 82.35980487804878" height="82.35980487804878" width="395.52"><g transform="matrix(1,0,0,1,0,0)"><svg width="395.52" viewBox="1.34 -38.06 240.22 50.01999999999999" height="82.35980487804878" data-palette-color="#3d9970"><path d="M17.16 0.49L17.16 0.49Q13.16 0.49 10.33-2.25L10.33-2.25 10.33 6.47Q10.33 8.35 11.15 8.81 11.96 9.28 15.28 9.28L15.28 9.28 15.28 11.96 1.64 11.96 1.64 9.28Q3.74 9.28 4.27 8.85 4.81 8.42 4.93 7.93 5.05 7.45 5.05 6.71L5.05 6.71 5.05-18.68Q5.05-20.43 4.75-20.97 4.44-21.51 3.08-21.51L3.08-21.51 1.34-21.51 1.34-24.19Q3.76-24.19 5.13-24.55 6.49-24.9 7.08-25.06 7.67-25.22 8.33-25.22L8.33-25.22Q9.62-25.22 10.02-24.48 10.42-23.73 10.42-22.09L10.42-22.09 10.42-22.02Q13.16-25.24 17.88-25.24 22.61-25.24 25.51-22.06 28.42-18.87 28.42-12.82 28.42-6.76 25.4-3.14 22.39 0.49 17.16 0.49ZM10.21-12.11Q10.21-7.62 11.94-5.03 13.67-2.44 16.58-2.44L16.58-2.44Q19.46-2.44 21.09-5.09 22.73-7.74 22.73-12.16L22.73-12.16Q22.73-19.21 19.31-21.48L19.31-21.48Q18.09-22.31 16.43-22.31 14.77-22.31 13.62-21.53 12.48-20.75 11.72-19.38L11.72-19.38Q10.21-16.6 10.21-12.11ZM53.85-16.8L53.85-5.83Q53.85-2.93 55-2.93L55-2.93Q56.1-2.93 56.61-3.67 57.13-4.42 57.13-6.37L57.13-6.37 59.69-6.37Q59.71-6.05 59.71-5.37L59.71-5.37Q59.71-3.17 58.62-1.56L58.62-1.56Q57.27 0.49 54.34 0.49L54.34 0.49Q52.44 0.49 51.1-0.59 49.75-1.66 49.24-3.42L49.24-3.42Q45.7 0.49 40.28 0.49L40.28 0.49Q37.3 0.49 35.09-1.26 32.88-3 32.88-6.13L32.88-6.13Q32.88-11.55 40.89-14.14L40.89-14.14Q45.97-15.75 46.97-16.37 47.97-16.99 48.28-17.64 48.58-18.29 48.58-19.09L48.58-19.09Q48.58-20.53 47.17-21.5 45.75-22.46 43.48-22.46 41.21-22.46 39.48-21.24L39.48-21.24Q40.7-20.34 40.7-18.92 40.7-17.5 39.76-16.65 38.82-15.8 37.49-15.8 36.15-15.8 35.29-16.6 34.42-17.41 34.42-18.85L34.42-18.85Q34.42-21.7 37.3-23.47 40.18-25.24 44.31-25.24L44.31-25.24Q51.68-25.24 53.32-20.46L53.32-20.46Q53.85-18.87 53.85-16.8L53.85-16.8ZM43.09-11.91Q40.94-10.99 39.87-9.53 38.79-8.08 38.79-6.37 38.79-4.66 39.72-3.78 40.65-2.91 42.04-2.91L42.04-2.91Q44.87-2.91 46.73-4.9 48.58-6.88 48.58-10.45L48.58-10.45 48.58-14.21Q47.02-13.4 45.27-12.74 43.53-12.08 43.09-11.91L43.09-11.91ZM74.73-21.51L74.73-21.51Q73.48-22.75 70.65-22.75 67.82-22.75 66.82-20.7L66.82-20.7Q66.55-20.12 66.55-19.37 66.55-18.63 67.13-17.93 67.72-17.24 68.65-16.61 69.58-15.99 70.73-15.41 71.89-14.82 73.14-14.14 74.38-13.45 75.78-12.7L75.78-12.7Q80.88-9.91 80.88-6.53 80.88-3.15 78.24-1.33 75.61 0.49 71.25 0.49 66.89 0.49 64.06-1.07 61.23-2.64 61.23-5.1L61.23-5.1Q61.23-6.45 62.12-7.37 63.01-8.3 64.39-8.3 65.77-8.3 66.67-7.43 67.57-6.57 67.57-5.37 67.57-4.17 66.74-3.34L66.74-3.34Q68.7-2.22 71.59-2.22 74.48-2.22 75.65-3.56L75.65-3.56Q76.14-4.1 76.14-4.96L76.14-4.96Q76.14-6.98 71.65-9.18L71.65-9.18Q68.53-10.72 66.96-11.6L66.96-11.6Q61.96-14.43 61.96-18.43L61.96-18.43Q61.96-21.51 64.51-23.36 67.06-25.22 71.02-25.22 74.97-25.22 77.67-23.74 80.37-22.27 80.37-19.92L80.37-19.92Q80.37-18.55 79.71-17.9L79.71-17.9Q78.56-16.75 77.51-16.75L77.51-16.75Q75.8-16.75 74.93-17.61 74.07-18.48 74.07-19.6 74.07-20.73 74.73-21.51ZM98.5-21.51L98.5-21.51Q97.26-22.75 94.43-22.75 91.59-22.75 90.59-20.7L90.59-20.7Q90.32-20.12 90.32-19.37 90.32-18.63 90.91-17.93 91.5-17.24 92.42-16.61 93.35-15.99 94.51-15.41 95.67-14.82 96.92-14.14 98.16-13.45 99.55-12.7L99.55-12.7Q104.66-9.91 104.66-6.53 104.66-3.15 102.02-1.33 99.38 0.49 95.02 0.49 90.67 0.49 87.83-1.07 85-2.64 85-5.1L85-5.1Q85-6.45 85.89-7.37 86.78-8.3 88.16-8.3 89.54-8.3 90.45-7.43 91.35-6.57 91.35-5.37 91.35-4.17 90.52-3.34L90.52-3.34Q92.47-2.22 95.37-2.22 98.26-2.22 99.43-3.56L99.43-3.56Q99.92-4.1 99.92-4.96L99.92-4.96Q99.92-6.98 95.43-9.18L95.43-9.18Q92.3-10.72 90.74-11.6L90.74-11.6Q85.73-14.43 85.73-18.43L85.73-18.43Q85.73-21.51 88.29-23.36 90.84-25.22 94.79-25.22 98.75-25.22 101.45-23.74 104.14-22.27 104.14-19.92L104.14-19.92Q104.14-18.55 103.48-17.9L103.48-17.9Q102.34-16.75 101.29-16.75L101.29-16.75Q99.58-16.75 98.71-17.61 97.84-18.48 97.84-19.6 97.84-20.73 98.5-21.51ZM114.93-29.76L114.93-29.76Q113.34-29.76 112.23-30.82 111.12-31.88 111.12-33.42L111.12-33.42Q111.12-34.99 112.25-36.07 113.37-37.16 114.93-37.16L114.93-37.16Q116.49-37.16 117.62-36.07 118.74-34.99 118.74-33.42L118.74-33.42Q118.74-31.88 117.63-30.82 116.52-29.76 114.93-29.76ZM108.71 0L108.71-2.69Q110.98-2.69 111.55-3.11 112.12-3.54 112.25-4.03 112.37-4.52 112.37-5.25L112.37-5.25 112.37-18.7Q112.37-20.46 112.06-21 111.76-21.53 110.41-21.53L110.41-21.53 108.66-21.53 108.66-24.22Q111.05-24.22 112.42-24.57 113.78-24.93 114.35-25.09 114.91-25.24 115.57-25.24L115.57-25.24Q116.84-25.24 117.24-24.5 117.64-23.75 117.64-22.12L117.64-22.12 117.64-5.25Q117.64-3.71 118.13-3.32L118.13-3.32Q118.96-2.69 121.28-2.69L121.28-2.69 121.28 0 108.71 0ZM125.26-12.5L125.26-12.5Q125.26-15.43 126.17-17.91 127.09-20.39 128.72-22.02L128.72-22.02Q131.95-25.24 137.29-25.24L137.29-25.24Q142.69-25.24 146-22.01 149.3-18.77 149.3-12.83 149.3-6.88 146.25-3.2 143.2 0.49 137.29 0.49L137.29 0.49Q131.38 0.49 128.32-3.09 125.26-6.67 125.26-12.5ZM137.29-2.44L137.29-2.44Q140.12-2.44 141.89-5.03 143.66-7.62 143.66-12.3L143.66-12.3Q143.66-19.85 139.86-21.73L139.86-21.73Q138.68-22.31 137.29-22.31L137.29-22.31Q132.78-22.31 131.41-16.85L131.41-16.85Q130.92-14.97 130.92-12.45L130.92-12.45Q130.92-7.62 132.69-5.03 134.46-2.44 137.29-2.44ZM168.64-21.58L168.64-21.58Q164.63-21.58 162.14-19.09L162.14-19.09 162.14-5.25Q162.14-3.74 162.63-3.34L162.63-3.34Q163.49-2.69 165.85-2.69L165.85-2.69 165.85 0 153.45 0 153.45-2.69Q155.55-2.69 156.09-3.11 156.63-3.54 156.75-4.03 156.87-4.52 156.87-5.25L156.87-5.25 156.87-18.55Q156.87-20.31 156.56-20.85 156.26-21.39 154.89-21.39L154.89-21.39 153.4-21.39 153.4-24.07Q155.7-24.07 157-24.43 158.31-24.78 158.86-24.94 159.41-25.1 160.04-25.1L160.04-25.1Q161.34-25.1 161.74-24.35 162.14-23.61 162.14-21.97L162.14-21.97Q164.76-24.17 168.2-24.95L168.2-24.95Q169.35-25.22 170.44-25.22L170.44-25.22Q178.35-25.22 178.35-14.75L178.35-14.75 178.35-5.3Q178.35-3.69 178.82-3.19 179.28-2.69 181.36-2.69L181.36-2.69 181.36 0 169.81 0 169.81-2.69Q172.03-2.69 172.48-3.14 172.93-3.59 173.01-4.08 173.08-4.57 173.08-5.3L173.08-5.3 173.08-14.43Q173.08-17.82 172.45-19.09L172.45-19.09Q171.2-21.58 168.64-21.58ZM192.49-31.13L192.49-31.13Q194.07-30.2 194.07-28.14 194.07-26.07 192.07-25.24L192.07-25.24Q191.46-24.98 190.73-24.98L190.73-24.98Q189.31-24.98 188.37-26.06 187.43-27.15 187.43-28.69L187.43-28.69Q187.43-31.81 190.58-34.46 193.73-37.11 198.38-37.11 203.03-37.11 206.27-34.57 209.5-32.03 209.5-27.69 209.5-23.34 205.62-20.41L205.62-20.41Q204.55-19.6 203.45-19.04L203.45-19.04Q206.53-17.94 208.5-15.53 210.48-13.11 210.48-10.45L210.48-10.45Q210.48-5.42 206.78-2.47 203.08 0.49 197.96 0.49 192.83 0.49 189.41-2.03L189.41-2.03Q187.9-3.13 187.07-4.49 186.24-5.86 186.24-6.93L186.24-6.93Q186.24-8.89 187.24-10.02 188.24-11.16 189.75-11.16L189.75-11.16Q191.97-11.16 192.83-9.13L192.83-9.13Q193.07-8.52 193.07-7.84L193.07-7.84Q193.07-6.1 191.63-5.08L191.63-5.08Q192.93-2.59 196.98-2.59L196.98-2.59Q200.03-2.59 202.27-4.54 204.5-6.49 204.5-10.18L204.5-10.18Q204.5-12.89 202.35-14.99 200.2-17.09 197-17.09L197-17.09 194.9-17.09 194.9-20.51 196.22-20.51Q199.45-20.51 201.48-22.6 203.52-24.68 203.52-27.84 203.52-31.01 201.76-32.52 200.01-34.03 197.42-34.03 194.83-34.03 193.32-32.42L193.32-32.42Q192.78-31.88 192.49-31.13ZM233.4-3.86L233.4-3.86Q230.5 0.49 225.49 0.49 220.49 0.49 217.55-2.81 214.6-6.1 214.6-11.67L214.6-11.67Q214.6-18.51 217.62-21.88 220.63-25.24 225.88-25.24L225.88-25.24Q229.86-25.24 232.69-22.51L232.69-22.51 232.69-31.52Q232.69-33.25 232.34-33.8 231.99-34.35 230.62-34.35L230.62-34.35 228.89-34.35 228.89-37.04Q231.3-37.04 232.67-37.39 234.04-37.74 234.62-37.9 235.21-38.06 235.87-38.06L235.87-38.06Q237.16-38.06 237.57-37.32 237.97-36.57 237.97-34.94L237.97-34.94 237.97-6.49Q237.97-4.13 238.16-3.56L238.16-3.56Q238.58-2.49 240.17-2.49L240.17-2.49Q240.97-2.49 241.56-2.76L241.56-2.76 241.56-0.39Q240.39 0.49 238.38 0.49L238.38 0.49Q234.38 0.49 233.4-3.86ZM223.56-3.27L223.56-3.27Q224.74-2.44 226.4-2.44L226.4-2.44Q229.62-2.44 231.22-5.14 232.82-7.84 232.82-12.6L232.82-12.6Q232.82-19.68 229.08-21.68L229.08-21.68Q227.89-22.31 226.44-22.31L226.44-22.31Q223.56-22.31 221.93-19.67 220.29-17.02 220.29-12.6L220.29-12.6Q220.29-5.54 223.56-3.27Z" opacity="1" transform="matrix(1,0,0,1,0,0)" fill="#ffffff" class="wordmark-text-0" data-fill-palette-color="primary" id="text-0"></path></svg></g></svg></g></svg></g></svg></g><g transform="matrix(1,0,0,1,414.9631732963902,0)"><svg viewBox="0 0 113.82125034146343 113.82125034146343" height="113.82125034146343" width="113.82125034146343"><g data-palette-color="#cf8063"><rect width="31.111141760000006" height="113.82125034146343" fill="#ffffff" stroke="transparent" data-fill-palette-color="accent" x="0" fill-opacity="1"></rect><rect width="31.111141760000006" height="113.82125034146343" fill="#ffffff" stroke="transparent" data-fill-palette-color="accent" x="37.94041678048781" fill-opacity="0.75"></rect><rect width="31.111141760000006" height="113.82125034146343" fill="#ffffff" stroke="transparent" data-fill-palette-color="accent" x="75.88083356097562" fill-opacity="0.5"></rect></g></svg></g></svg></g><defs></defs></svg><rect width="395.52" height="85.13598155055962" fill="none" stroke="none" visibility="hidden"></rect></g></svg></g></svg>